<svg xmlns="http://www.w3.org/2000/svg" xmlns:xlink="http://www.w3.org/1999/xlink" version="1.1" x="0px" y="0px" viewBox="0 0 566.93 708.6624999999999" enable-background="new 0 0 566.93 566.93" xml:space="preserve"><g display="none"><path display="inline" d="M391.898,436.184c-29.322-10.998-54.409-30.404-72.549-56.117c-18.53-26.265-28.324-57.206-28.324-89.481   c0-42.057,16.539-81.455,46.569-110.934c6.866-6.74,8.982-16.959,5.358-25.872c-3.61-8.878-12.205-14.71-21.781-14.79   c-0.278-0.005-0.514-0.008-0.751-0.008c-47.625,0-92.4,18.546-126.076,52.223s-52.222,78.45-52.222,126.076   s18.546,92.4,52.222,126.075s78.451,52.223,126.076,52.223c25.35,0,49.859-5.223,72.847-15.524   c8.779-3.934,14.314-12.778,14.014-22.394C406.981,448.045,400.905,439.561,391.898,436.184z"/></g><g display="none"><path display="inline" d="M444.708,180.492c-53.537-53.537-140.149-53.348-193.686,0.189   c-43.112,43.112-51.372,107.917-24.986,159.492l-92.403,92.403c-16.429,16.429-16.429,43.067,0,59.496   c16.429,16.429,43.067,16.429,59.496,0l92.322-92.322c51.499,26.461,116.242,18.01,159.447-25.195   C498.434,321.018,498.245,234.029,444.708,180.492z M289.813,335.386c-32.009-32.009-32.009-83.906,0-115.914   s83.906-32.009,115.914,0s32.009,83.906,0,115.914S321.822,367.395,289.813,335.386z"/></g><g display="none"><g display="inline"><path d="M380.942,138.471c-18.085,0-34.722,6.174-47.941,16.514c-1.689,1.003-3.2,2.269-4.46,3.763    c-2.565,3.037-4.117,6.958-4.117,11.246c0,6.849,3.955,12.76,9.697,15.617c1.159,0.578,2.389,1.028,3.677,1.337    c33.623,12.699,62.239,35.582,82.095,64.891c0.481,0.892,1.047,1.73,1.672,2.518c3.173,4.012,8.072,6.592,13.583,6.592    c5.959,0,11.213-3.009,14.331-7.59c0.799-1.174,1.44-2.459,1.934-3.816c4.752-10.066,7.426-21.306,7.426-33.177    C458.838,173.346,423.963,138.471,380.942,138.471z"/><path d="M132.315,253.813c1.008-1.137,1.867-2.402,2.553-3.773c19.994-28.725,48.479-51.088,81.829-63.455    c1.119-0.282,2.193-0.668,3.214-1.153c5.931-2.816,10.042-8.844,10.042-15.846c0-4.681-1.845-8.925-4.834-12.071    c-1.013-1.068-2.159-2.002-3.411-2.788c-13.167-10.187-29.68-16.256-47.615-16.256c-43.02,0-77.896,34.875-77.896,77.896    c0,10.879,2.251,21.225,6.282,30.627c0.533,1.889,1.368,3.646,2.462,5.217c3.154,4.525,8.389,7.493,14.323,7.493    C124.464,259.704,129.118,257.418,132.315,253.813z"/><path d="M420.985,429.88l-7.155-7.156c11.941-22.039,18.724-47.281,18.724-74.108c0-86.042-69.75-155.791-155.791-155.791    s-155.791,69.749-155.791,155.791c0,27.025,6.885,52.441,18.991,74.596l-6.668,6.667c-17.1,17.099-17.1,44.823,0,61.923    c17.099,17.099,44.822,17.099,61.922,0l6.589-6.589c22.24,12.231,47.784,19.193,74.957,19.193    c27.371,0,53.088-7.067,75.441-19.463l6.86,6.859c17.099,17.099,44.822,17.099,61.922,0    C438.085,474.703,438.085,446.979,420.985,429.88z M292,343.061v0.734v0.388c0,9.59-7.277,17.363-16.866,17.363    c-0.066,0,0.12,0.218,0.055,0.217c-0.065,0.001,0.12,0.237,0.055,0.237h-67.168c-9.803,0-17.075-8.401-17.075-18.205v-0.734    c0-9.804,7.272-18.061,17.075-18.061H258v-80.467c0-9.59,7.41-17.363,17-17.363s17,7.773,17,17.363V343.061z"/></g></g><g display="none"><path display="inline" d="M480.086,310.271c0.072-0.06-0.098-0.122-0.026-0.182L313.237,143.043l-3.452-3.4   c-2.961-2.252-6.674-3.604-10.681-3.604c-4.14,0-7.954,1.437-10.962,3.825l-2.879,2.878L119.819,308.526   c-1.691,1.188-3.3,2.663-4.485,4.356c-2.009,2.873-3.334,6.363-3.334,10.134v162.13c0,9.889,8.201,17.853,18.048,17.853h0.659H251   v-46.744V429c0,0-0.082,0-0.074,0c-0.005,0-0.026-0.953-0.026-1.123c0-9.919,8.848-18.271,18.767-18.271   c0.177,0-1.668-0.289,1.332-0.283c0-0.017,0-1.324,0-1.324h55c0,0,0,1.312,0,1.33c0-0.009,0.553-0.033,0.311-0.033   c9.165,0,16.689,6.941,18.689,15.853v3.83v27.276V503h121.934c9.996,0,19.066-7.867,19.066-17.862V323.017   C486,318.007,483.429,313.493,480.086,310.271z"/></g><g display="none"><g display="inline"><path d="M330.5,293.095c8.671,0,15.5-7.026,15.5-15.697v-16.206c0-8.671-6.829-15.697-15.5-15.697    c-8.671,0-15.5,7.026-15.5,15.697v16.206C315,286.069,321.829,293.095,330.5,293.095z"/><path d="M248.5,245.495c-8.671,0-15.5,7.026-15.5,15.697v16.206c0,8.671,6.829,15.697,15.5,15.697c8.671,0,15.5-7.026,15.5-15.697    v-16.206C264,252.521,257.171,245.495,248.5,245.495z"/><path d="M367.293,381.879c-0.88-0.782-1.831-1.553-2.707-2.299c-7.382-6.277-16.146-12.57-25.293-18.034    c3.71-2.565,7.382-5.136,11.03-7.764c12.377-9.474,20.653-17.306,26.464-23.89c1.19-1.471,2.267-2.802,3.259-4.2    c0.713-0.768,1.432-1.565,2.153-2.386c0.309-0.352,0.618-0.702,0.923-1.065c2.005-2.387,3.78-5.001,4.849-7.893    c0.611-1.579,1.071-3.173,1.071-4.844c0-0.039,0.495-3.143,0.486-6.881c-0.013-5.727,0.472-12.947,0.472-12.947v-18.575    c0-0.358-0.399-0.725-0.332-1.094c1.062-5.85,5.118-13.063,7.008-20.801c0.387-1.584,0.557-3.187,0.691-4.807l-0.359-0.12    c0.821-5.576,0.847-11.28-0.016-16.914c-8.65-56.375-51.974-91.805-104.083-91.805c-53.148,0-97.132,37.144-104.548,95.171    c-0.581,4.549-0.597,9.129-0.158,13.657l-0.027,0.01c0.058,0.706,0.151,1.408,0.265,2.108c1.441,8.79,6.97,17.045,7.868,23.584    c0.089,0.65-0.093,1.289-0.105,1.904l-0.206-0.01v19.909c0,3.554,0.071,7.149,0.044,10.728c-0.015,2.012,0.136,4.019,0.272,6.011    c0.137,2.023,0.629,4.134,1.353,5.714c1.116,2.9,2.862,5.495,4.828,7.893c0.296,0.36,0.615,0.714,0.922,1.065    c0.506,0.581,1.031,1.15,1.558,1.709c2.201,3.306,4.963,6.413,8.632,10.127c6.747,6.734,15.797,14.631,28.657,23.938    c-0.06,0.035-0.117,0.047-0.177,0.081c1.032,0.741,2.068,1.466,3.102,2.203c-8.813,5.228-17.56,11.443-25.766,18.359    c-12.501,10.535-23.243,22.146-30.737,33.585C179.72,426.997,175,440.203,175,452.566v41.626c0,5.792,5.044,9.808,10.836,9.808    h90.097h9.374h113.532c5.792,0,11.162-4.016,11.162-9.808v-36.751C410,429.424,388.265,400.515,367.293,381.879z M272.942,354.64    c-9.737-7.277-19.892-13.974-29.476-21.461c-4.761-3.721-9.382-7.665-13.682-11.917c-2.302-2.273-4.942-4.646-7.158-7.346    c-1.528-1.863-2.856-3.88-3.724-6.134c-0.563-1.227-0.37-2.868-0.477-4.44c-0.292-4.301,0.575-8.693,0.575-13.008v-9.382v-32.261    v-4.875c0-19.795,15.624-35.06,34.513-35.06c2.446,0,4.655,0.258,7.157,0.794c11.111,2.377,22.273,4.085,33.662,4.043    c10.351-0.035,20.455-1.84,30.548-3.994c0.077-0.014,0.117-0.035,0.194-0.049c2.509-0.536,5.194-0.794,7.641-0.794    c18.889,0,35.285,15.265,35.285,35.06v44.791c0,0-0.201,15.336-0.201,15.413c0,1.298-0.474,2.537-0.949,3.764    c-0.831,2.247-2.271,4.279-3.829,6.134c-1.419,1.69-2.957,3.234-4.253,4.656c-4.287,4.698-9.044,8.963-14.021,12.915    c-10.309,8.197-21.582,15.174-32.253,23.147c-5.325,3.98-12.387,6.221-19.775,6.395C285.33,360.856,278.267,358.62,272.942,354.64    z"/></g></g><g display="none"><g display="inline"><path d="M325.5,274.898c8.14,0,14.5-6.599,14.5-14.739v-15.214c0-8.14-6.366-14.739-14.5-14.739c-8.141,0-14.5,6.599-14.5,14.739    v15.214C311,268.299,317.359,274.898,325.5,274.898z"/><path d="M407,387.971V251.006c0-63.757-51.976-115.445-115.732-115.445c-0.081,0-0.308,0.003-0.389,0.003    c-0.13-0.002-0.305-0.003-0.405-0.003C226.716,135.561,175,187.25,175,251.006v136.965c10-3.913,20.218-6.117,31.316-6.117    c3.787,0,7.492,0.256,11.143,0.746c-11.756,10.083-21.847,21.11-28.968,31.979C179.648,428.076,175,441.102,175,453.292v41.045    c0,5.711,4.938,9.662,10.65,9.662h88.841h9.243h111.95c5.711,0,11.316-3.951,11.316-9.662v-36.238    c0-27.626-21.587-56.133-42.267-74.51c-0.351-0.312-0.847-0.608-1.197-0.915c3.813-0.535,7.926-0.821,11.888-0.821    C386.522,381.854,397,384.058,407,387.971z M363,228.629v56.537c0,14.035-52.177,47.496-52.177,47.496    c-5.195,3.879-11.823,6.054-19.823,6.061v-0.025c0,0-0.207,0.009-0.318,0.015c-6.438-0.056-12.648-1.821-17.589-5.026    c0,0-0.837-0.599-2.741-1.65C263.337,327.403,220,298.072,220,285.166v-11.762c3-9.439,9-18.356,15-26.59v13.337    c0,8.14,6.36,14.739,14.5,14.739c8.14,0,14.5-6.599,14.5-14.739v-15.214c0-7.687-5.525-13.93-13.038-14.607    c11.229-9.59,24.673-17.709,39.469-23.962c0.137,0.056,0.569,0.108,0.569,0.164v-0.339c11-4.099,20.666-7.393,31.612-9.73    C343.134,192.077,363,207.646,363,228.629z"/></g></g><g display="none"><path display="inline" d="M490.953,392c0-8.19,6.64-15,14.831-15h22.339c-2.624-57-24.499-108.284-59.214-148.522l-15.199,15.136   c-2.896,2.895-6.691,4.312-10.487,4.312c-3.796,0-7.591-1.464-10.487-4.359c-5.792-5.792-5.792-15.19,0-20.982l15.923-15.488   C409.202,171.147,358,147.886,302,143.816v22.337c0,8.19-6.809,14.831-15,14.831s-15-6.64-15-14.831v-22.695   c-56,2.708-108.388,24.659-148.579,59.44l15.979,16.114c5.792,5.792,5.724,15.182-0.067,20.974   c-2.896,2.895-6.725,4.343-10.52,4.343c-3.796,0-7.608-1.448-10.504-4.343l-16.375-16.274C66.049,263.218,42.863,315,38.877,371   h21.99c8.191,0,14.831,6.81,14.831,15s-6.64,15-14.831,15H38.58c1.573,31,9.237,61.702,21.824,89.189   c0.01,0.03,1.088,2.074,1.395,2.72c3.1,5.834,7.835,8.09,13.76,8.09h379.801h34.852c6.241,0,11.681-3.21,14.64-8.221   c0.188-0.396,1.242-2.57,1.367-2.843c0.009-0.025,0.015,0.286,0.024,0.26C518.046,464.421,525.521,436,527.705,407h-21.922   C497.592,407,490.953,400.19,490.953,392z M396.314,295.347l-58.02,111.214c-2.747,8.29-7.399,16.081-13.983,22.666   c-10.948,10.948-25.504,16.977-40.986,16.977s-30.038-6.029-40.986-16.977c-22.599-22.601-22.599-59.373,0-81.973   c6.088-6.087,13.294-10.649,21.151-13.503c0.115-0.064,0.22-0.14,0.337-0.201l112.522-58.233c5.745-2.97,12.754-1.877,17.321,2.701   C398.235,282.599,399.306,289.612,396.314,295.347z"/></g><g display="none"><g display="inline"><path d="M536.656,442.249l-63.32-99.284c33.333-40.198,38.912-99.121,9.28-145.584c-23.602-37.006-63.532-57.268-104.335-57.268    c-22.678,0-45.621,6.256-66.189,19.373c-57.574,36.719-74.689,113.291-37.97,170.865c23.591,36.991,63.404,57.301,104.214,57.301    c10.34,0,20.742-1.303,30.962-3.97l63.376,99.372c7.236,11.345,19.499,17.545,32.027,17.545c6.981,0,14.045-1.925,20.367-5.958    C542.736,483.375,547.925,459.917,536.656,442.249z M418.328,326.061c-12.316,7.855-26.081,11.607-39.681,11.607    c-24.41,0-48.299-12.077-62.398-34.183c-21.954-34.423-11.845-80.125,22.577-102.079c12.316-7.855,26.081-11.605,39.681-11.607    c24.41-0.001,48.299,12.077,62.398,34.184C462.859,258.406,452.751,304.108,418.328,326.061z"/><path d="M399.45,406.854c-6.983,1.038-14.304,1.562-21.376,1.562c-8.412,0-16.074-0.739-25.074-2.143V501h107.626    c-1.975-2-3.814-4.426-5.457-7.003L399.45,406.854z"/><path d="M421.941,233h-51.361C361.16,233,353,240.647,353,250.066v60.573c8,4.052,16.434,6.265,25.385,6.265    c10.091,0,20.083-2.887,28.648-8.349c11.972-7.635,20.32-19.477,23.387-33.341c3.067-13.865,0.583-28.1-7.053-40.073    C422.901,234.411,422.438,234,421.941,233z"/><path d="M256.443,341.516c-20.739-32.517-27.448-70.975-19.049-108.702C245.71,195.459,268.023,164,300.089,143h-82.264    c-9.419,0-16.825,7.181-16.825,16.6V501h124V398.381C297,387.39,273.187,367.77,256.443,341.516z"/><path d="M155.537,368H66.554C57.134,368,49,375.605,49,385.024V501h123V385.024C172,375.605,164.956,368,155.537,368z"/></g></g><g display="none"><path display="inline" d="M475.87,281.232c-1.864-8.403-10.139-13.27-18.388-10.813l-22.475,6.691   c-2.852-9.605-6.671-18.794-11.358-27.445l20.557-11.125c7.57-4.097,9.986-13.392,5.369-20.656c0,0-10.369-16.313-23.229-29.174   c-12.805-12.805-28.985-23.11-28.985-23.11c-7.26-4.624-16.552-2.214-20.649,5.357l-11.133,20.571   c-8.65-4.699-17.84-8.528-27.446-11.392l6.649-22.334c2.456-8.25-2.409-16.531-10.81-18.403c0,0-18.867-4.203-37.054-4.203   c-18.108,0-36.837,4.154-36.837,4.154c-8.403,1.864-13.269,10.139-10.813,18.388l6.649,22.334   c-9.617,2.851-18.817,6.67-27.479,11.36l-11.049-20.417c-4.097-7.57-13.392-9.986-20.657-5.369c0,0-16.313,10.369-29.173,23.229   c-12.805,12.805-23.11,28.985-23.11,28.985c-4.624,7.26-2.214,16.552,5.356,20.649l20.434,11.059   c-4.701,8.661-8.53,17.862-11.391,27.479l-22.197-6.608c-8.25-2.456-16.531,2.409-18.403,10.81c0,0-4.203,18.868-4.203,37.054   c0,18.109,4.154,36.837,4.154,36.837c1.864,8.403,10.139,13.27,18.388,10.813l22.263-6.628c2.862,9.617,6.691,18.818,11.392,27.478   l-20.379,11.029c-7.57,4.097-9.986,13.392-5.369,20.656c0,0,10.369,16.313,23.229,29.174c12.805,12.805,28.985,23.11,28.985,23.11   c7.26,4.624,16.552,2.214,20.649-5.357l11.084-20.482c8.662,4.689,17.861,8.508,27.477,11.359l-6.632,22.277   c-2.456,8.25,2.409,16.531,10.81,18.403c0,0,18.867,4.203,37.054,4.203c18.108,0,36.837-4.154,36.837-4.154   c8.403-1.864,13.269-10.139,10.813-18.388l-6.67-22.404c9.605-2.863,18.795-6.692,27.444-11.391l11.104,20.519   c4.097,7.57,13.392,9.986,20.657,5.368c0,0,16.313-10.369,29.173-23.229c12.805-12.805,23.11-28.985,23.11-28.985   c4.624-7.26,2.214-16.552-5.356-20.649l-20.619-11.158c4.688-8.651,8.506-17.839,11.359-27.444l22.413,6.672   c8.25,2.456,16.531-2.409,18.402-10.81c0,0,4.203-18.867,4.203-37.054C480.024,299.96,475.87,281.232,475.87,281.232z    M296.918,355.75c-20.749,0-37.569-16.82-37.569-37.569s16.82-37.569,37.569-37.569c20.749,0,37.569,16.82,37.569,37.569   S317.667,355.75,296.918,355.75z"/></g><g display="none"><path display="inline" d="M453.968,161.435c-25.997-25.997-68.297-25.997-94.293,0l-3.929,3.929l-25.422,25.422L145.897,375.213   c-1.854,1.853-2.801,4.265-2.86,6.693l-18.197,67.93l-10.677,39.858c-0.906,3.384,0.061,6.994,2.538,9.471   c2.477,2.477,6.087,3.444,9.47,2.538l39.858-10.678c0.002,0,0.003-0.001,0.005-0.002l69.991-18.748   c2.536-0.679,4.656-2.334,5.941-4.544l182.651-182.651l25.422-25.422l3.929-3.929C479.965,229.731,479.965,187.431,453.968,161.435   z M166.422,470.617l-21.175-21.175l12.891-48.122l56.407,56.407L166.422,470.617z M417.684,264.279l-66.56-66.56l11.556-11.555   l66.56,66.56L417.684,264.279z M450.786,225.343c-0.22,0.874-0.667,1.703-1.35,2.386c-2.018,2.018-5.29,2.018-7.308,0   c-1.7-1.7-1.962-4.288-0.797-6.269c4.438-13.286,2.456-27.561-7.72-38.269c-0.213-0.224-0.41-0.458-0.629-0.678   c-0.055-0.05-0.112-0.096-0.165-0.149c-1.981-1.981-1.981-5.193,0-7.174c1.981-1.981,5.193-1.981,7.174,0   c0.037,0.037,0.069,0.078,0.105,0.116l0.006-0.006c0.848,0.848,1.656,1.72,2.425,2.615c0.281,0.327,0.531,0.672,0.802,1.005   c0.469,0.577,0.949,1.148,1.387,1.741c0.318,0.431,0.6,0.881,0.901,1.32c0.353,0.514,0.722,1.021,1.052,1.546   c0.311,0.496,0.585,1.007,0.876,1.512c0.281,0.486,0.58,0.965,0.842,1.459c0.293,0.552,0.546,1.118,0.815,1.678   c0.222,0.462,0.462,0.917,0.668,1.384c0.266,0.603,0.492,1.219,0.731,1.831c0.171,0.437,0.36,0.868,0.518,1.309   c0.232,0.651,0.424,1.312,0.627,1.971c0.126,0.412,0.272,0.818,0.387,1.233c0.193,0.694,0.345,1.396,0.506,2.097   c0.088,0.386,0.195,0.769,0.274,1.157c0.149,0.734,0.257,1.473,0.371,2.212c0.055,0.361,0.129,0.719,0.176,1.08   c0.099,0.764,0.159,1.531,0.22,2.297c0.027,0.34,0.072,0.679,0.092,1.02c0.046,0.785,0.053,1.571,0.06,2.357   c0.003,0.324,0.023,0.648,0.019,0.972c-0.009,0.8-0.057,1.598-0.107,2.396c-0.019,0.31-0.022,0.621-0.048,0.931   c-0.065,0.802-0.17,1.601-0.276,2.399c-0.041,0.305-0.066,0.611-0.112,0.915c-0.121,0.794-0.282,1.583-0.444,2.371   c-0.063,0.305-0.11,0.612-0.179,0.915c-0.177,0.782-0.392,1.555-0.609,2.328c-0.086,0.305-0.156,0.613-0.248,0.916   c-0.229,0.758-0.496,1.507-0.765,2.255C450.966,224.797,450.889,225.073,450.786,225.343z"/></g><g display="none"><g display="inline"><g><path d="M120,136.613c-9.642,0-17,7.844-17,17.487v67.324c0,9.378-4,15.514-11,19.039V154.1c0-9.643-8.858-17.487-18.5-17.487     S55,144.457,55,154.1v86.179c-6-3.679-10-9.126-10-16.232V154.1c0-9.643-7.358-17.487-17-17.487s-17,7.844-17,17.487v69.947     c0,25.702,17,46.827,44,53.156v207.397c0,9.643,8.858,17.487,18.5,17.487S92,494.243,92,484.601V277.278     c27-6.208,45-27.432,45-55.854V154.1C137,144.457,129.642,136.613,120,136.613z"/><path d="M552.35,138.125c-2.043-1.416-4.05-1.452-5.894-1.452c-3.989,0-6.882,2.255-9.496,4.691     c-0.686,0.64-68.593,71.031-68.593,184.568c0,9.058,8.978,24.068,19.164,24.068H522v134.601c0,9.643,7.358,17.487,17,17.487     s17-7.844,17-17.487V154.16C556,152.693,557.66,141.804,552.35,138.125z M522,232.876V313h-16.339     C508.143,274,512,258.458,522,232.876z"/></g><path d="M307.357,269.091c-46.845,0-84.955,38.111-84.955,84.954S260.512,439,307.357,439c46.844,0,84.954-38.111,84.954-84.954    S354.201,269.091,307.357,269.091z"/><path d="M307.356,207.872c-80.729,0-146.173,65.444-146.173,146.174c0,80.729,65.444,146.173,146.173,146.173    S453.53,434.774,453.53,354.045C453.53,273.316,388.086,207.872,307.356,207.872z M307.357,459.984    c-58.415,0-105.94-47.523-105.94-105.939s47.524-105.939,105.94-105.939s105.939,47.523,105.939,105.939    S365.772,459.984,307.357,459.984z"/></g></g><g display="none"><g display="inline"><path d="M202,168.993c0-15.46-12.533-27.993-27.993-27.993h-39.014C119.533,141,107,153.533,107,168.993v39.014    c0,15.46,12.533,27.993,27.993,27.993h39.014c15.46,0,27.993-12.533,27.993-27.993V168.993z"/><path d="M202,305.993c0-15.46-12.533-27.993-27.993-27.993h-39.014C119.533,278,107,290.533,107,305.993v39.014    c0,15.46,12.533,27.993,27.993,27.993h39.014c15.46,0,27.993-12.533,27.993-27.993V305.993z"/><path d="M202,438.993c0-15.46-12.533-27.993-27.993-27.993h-39.014C119.533,411,107,423.533,107,438.993v39.014    c0,15.46,12.533,27.993,27.993,27.993h39.014c15.46,0,27.993-12.533,27.993-27.993V438.993z"/><path d="M489,188.951C489,173.514,476.486,161,461.049,161H273.951C258.514,161,246,173.514,246,188.951v0.098    C246,204.486,258.514,217,273.951,217h187.098C476.486,217,489,204.486,489,189.049V188.951z"/><path d="M489,324.951C489,309.514,476.486,297,461.049,297H273.951C258.514,297,246,309.514,246,324.951v0.098    C246,340.486,258.514,353,273.951,353h187.098C476.486,353,489,340.486,489,325.049V324.951z"/><path d="M489,457.951C489,442.514,476.486,430,461.049,430H273.951C258.514,430,246,442.514,246,457.951v0.098    C246,473.486,258.514,486,273.951,486h187.098C476.486,486,489,473.486,489,458.049V457.951z"/></g></g><g display="none"><g display="inline"><path d="M441.235,189H415v23.927c0,24.181-18.819,43.854-43,43.854s-43-19.672-43-43.854V189h-58v23.927    c0,24.181-19.819,43.854-44,43.854s-44-19.672-44-43.854V189h-24.761C144.89,189,134,198.777,134,212.126v269.595    c0,13.35,10.89,24.279,24.239,24.279h282.995C454.584,506,465,495.071,465,481.721V212.126C465,198.777,454.584,189,441.235,189z     M415,457H183V306h232V457z"/><path d="M226.5,237.29c13.455,0,24.5-10.907,24.5-24.363v-24.972v-23.754c0-13.456-11.045-24.363-24.5-24.363    S202,150.745,202,164.201v23.754v24.972C202,226.383,213.045,237.29,226.5,237.29z"/><path d="M372,237.29c13.455,0,25-10.907,25-24.363v-24.972v-23.754c0-13.456-11.545-24.363-25-24.363s-25,10.907-25,24.363v23.754    v24.972C347,226.383,358.545,237.29,372,237.29z"/></g></g><g display="none"><g display="inline"><path d="M373.018,161h-61.152c-0.546-14-11.171-24-24.119-24h-19.874c-12.948,0-23.573,10-24.119,24h-61.152    C169.308,161,158,170.814,158,184.109V195h239v-10.891C397,170.814,386.312,161,373.018,161z"/><path d="M158,247.836v233.886C158,495.016,169.308,506,182.602,506h190.416C386.312,506,397,495.016,397,481.721V247.836V212H158    V247.836z M333,264.089c0-7.737,6.263-14.009,14-14.009s14,6.272,14,14.009v192.468c0,7.737-6.263,14.009-14,14.009    s-14-6.272-14-14.009V264.089z M263,264.089c0-7.737,6.263-14.009,14-14.009s14,6.272,14,14.009v192.468    c0,7.737-6.263,14.009-14,14.009s-14-6.272-14-14.009V264.089z M195,264.089c0-7.737,6.263-14.009,14-14.009s14,6.272,14,14.009    v192.468c0,7.737-6.263,14.009-14,14.009s-14-6.272-14-14.009V264.089z"/></g></g><g><g><path d="M409.573,180.969l-43.241-43.241c8.679-9.451,8.467-24.265-0.689-33.421L351.59,90.255    c-9.156-9.155-23.969-9.367-33.421-0.689l-43.241-43.241c-9.4-9.4-24.783-9.4-34.184,0l-7.026,7.026l168.828,168.827l7.026-7.026    C418.973,205.752,418.973,190.37,409.573,180.969z"/><path d="M151,270.618v233.886C151,517.798,161.745,528,175.039,528h190.416C378.749,528,390,517.798,390,504.503V270.618V234H151    V270.618z M326,286.871c0-7.737,5.763-14.009,13.5-14.009s13.5,6.272,13.5,14.009V479.34c0,7.737-5.763,14.009-13.5,14.009    S326,487.076,326,479.34V286.871z M256,286.871c0-7.737,6.263-14.009,14-14.009s14,6.272,14,14.009V479.34    c0,7.737-6.263,14.009-14,14.009s-14-6.272-14-14.009V286.871z M188,286.871c0-7.737,6.263-14.009,14-14.009s14,6.272,14,14.009    V479.34c0,7.737-6.263,14.009-14,14.009s-14-6.272-14-14.009V286.871z"/></g></g><g display="none"><path display="inline" d="M547.626,112.958c-4.399-6.522-12.317-9.716-20.01-8.082L32.92,210.11   c-7.96,1.693-14.001,8.199-15.103,16.262c-1.101,8.063,2.976,15.951,10.19,19.715l108.232,56.487l0.595,141.589   c0.031,7.54,4.453,14.371,11.319,17.488c2.554,1.158,5.272,1.725,7.971,1.725c4.559,0,9.067-1.615,12.645-4.718l100.005-86.72   l72.648,37.72c8.7,4.515,19.404,1.793,24.886-6.334l181.318-268.786C552.026,128.018,552.026,119.478,547.626,112.958z    M208.487,340.928l-41.883,79.034l-0.055-101.12l284.825-148.744L208.487,340.928z"/></g><text x="0" y="581.93" fill="#000000" font-size="5px" font-weight="bold" font-family="'Helvetica Neue', Helvetica, Arial-Unicode, Arial, Sans-serif">Created by Bruno Bosse</text><text x="0" y="586.93" fill="#000000" font-size="5px" font-weight="bold" font-family="'Helvetica Neue', Helvetica, Arial-Unicode, Arial, Sans-serif">from the Noun Project</text></svg>